<svg id="Layer_1" data-name="Layer 1" xmlns="http://www.w3.org/2000/svg" viewBox="0 0 258.49 280.24"><defs><style>.cls-1{fill:#fff;}</style></defs><path class="cls-1" d="M241.28,198.31,241,173.23l-49.79.47.19,19.27,29.14-.28.05,6.23A41.43,41.43,0,0,1,217.15,217a26.63,26.63,0,0,1-10.26,11.72,30.19,30.19,0,0,1-15.58,4.15,32,32,0,0,1-15.89-3.7,26.74,26.74,0,0,1-10.73-10.72,33.74,33.74,0,0,1-3.9-16.22l-.42-42.38A41,41,0,0,1,163.85,142a28,28,0,0,1,10.27-12,28.5,28.5,0,0,1,15.56-4.39,27.28,27.28,0,0,1,11.88,2.59A28.83,28.83,0,0,1,211.62,136a30.75,30.75,0,0,1,6.14,12.35l21.83-.22a55.78,55.78,0,0,0-9.69-22.34A48.18,48.18,0,0,0,212.31,111a49.38,49.38,0,0,0-22.82-5.07q-15,.15-26.37,6.93a45,45,0,0,0-17.45,19,57,57,0,0,0-5.5,19.23H140a31.17,31.17,0,0,1-6.15,12.51,29,29,0,0,1-10.2,8,29.59,29.59,0,0,1-12.27,2.78,28.11,28.11,0,0,1-15.45-4,27.7,27.7,0,0,1-10.4-11.8,41.24,41.24,0,0,1-3.83-17.75l-.39-39.42A41.27,41.27,0,0,1,84.79,83.5,28.38,28.38,0,0,1,95,71.49a29,29,0,0,1,27.64-1.66A30.84,30.84,0,0,1,133,77.89a32,32,0,0,1,6.38,12l20.66-.21A56.26,56.26,0,0,0,150.4,67.3a47.82,47.82,0,0,0-17.48-14.81,49.4,49.4,0,0,0-22.78-5.06Q95.23,47.58,84,54.36a45.26,45.26,0,0,0-17.36,19q-6.12,12.22-5.94,28.23L61.06,141q.15,16,6.5,28.1a44.86,44.86,0,0,0,17.71,18.6q11.37,6.51,26.3,6.36A48.07,48.07,0,0,0,140,184.94l.18,17.53q.13,15.12,6.58,26.51a44,44,0,0,0,18,17.57q11.58,6.15,26.8,6,15-.15,26.37-6.92a45,45,0,0,0,17.44-19Q241.43,214.33,241.28,198.31Z" transform="translate(-21.73 -9.88)"/><path class="cls-1" d="M239,290.12H63a41.28,41.28,0,0,1-41.23-41.23V51.11A41.28,41.28,0,0,1,63,9.88H239a41.28,41.28,0,0,1,41.23,41.23V248.89A41.28,41.28,0,0,1,239,290.12ZM63,25.88A25.26,25.26,0,0,0,37.73,51.11V248.89A25.26,25.26,0,0,0,63,274.12H239a25.26,25.26,0,0,0,25.23-25.23V51.11A25.26,25.26,0,0,0,239,25.88Z" transform="translate(-21.73 -9.88)"/></svg>